<svg xmlns="http://www.w3.org/2000/svg" width="1200" height="630" viewBox="0 0 1200 630">
  <rect width="1200" height="630" fill="#171918"/>
  <g stroke="#f1eee5" stroke-opacity=".07"><path d="M0 126h1200M0 252h1200M0 378h1200M0 504h1200"/><path d="M240 0v630M480 0v630M720 0v630M960 0v630"/></g>
  <rect x="64" y="56" width="45" height="45" fill="none" stroke="#d0a85f"/>
  <text x="75" y="84" font-family="monospace" font-size="14" fill="#d0a85f">CC</text>
  <text x="130" y="86" font-family="Arial, sans-serif" font-size="19" font-weight="600" fill="#f1eee5">Craig Chandler</text>
  <text x="1136" y="84" text-anchor="end" font-family="monospace" font-size="12" letter-spacing="2" fill="#a6aaa3">CASE STUDY / 04</text>
  <text x="64" y="206" font-family="monospace" font-size="14" letter-spacing="2" fill="#d0a85f">OPERATIONAL DECISION SUPPORT</text>
  <text x="64" y="296" font-family="Arial, sans-serif" font-size="62" letter-spacing="-3" fill="#f1eee5">Rail &amp; Bulk Supply</text>
  <text x="64" y="365" font-family="Arial, sans-serif" font-size="62" letter-spacing="-3" fill="#ead5aa">Chain Modelling</text>
  <g transform="translate(64 444)" font-family="monospace" font-size="10">
    <path d="M120 30h86M326 30h86M532 30h86M738 54v46H60V54" fill="none" stroke="#d0a85f" stroke-width="2" stroke-dasharray="4 7"/>
    <g fill="#222522" stroke="#f1eee5" stroke-opacity=".3"><rect width="120" height="54"/><rect x="206" width="120" height="54"/><rect x="412" width="120" height="54"/><rect x="618" width="120" height="54"/></g>
    <g fill="#f1eee5"><text x="43" y="32">MINE</text><text x="227" y="32">LOADOUT</text><text x="456" y="32">RAIL</text><text x="660" y="32">PORT</text></g>
  </g>
  <text x="64" y="590" font-family="monospace" font-size="12" letter-spacing="1" fill="#a6aaa3">SIMULATION  ·  SCHEDULING  ·  CAPACITY  ·  SCENARIO ANALYSIS</text>
</svg>
